<mxfile host="app.diagrams.net" modified="2023-06-03T11:43:34.546Z" agent="Mozilla/5.0 (Windows NT 10.0; Win64; x64) AppleWebKit/537.36 (KHTML, like Gecko) Chrome/95.0.4638.69 Safari/537.36" etag="dypDSbrWMtSbq-LpM8YH" version="21.2.3" type="device">
  <diagram name="Page-1" id="HjDszdRHoM0E5MkDWGMr">
    <mxGraphModel dx="1434" dy="773" grid="1" gridSize="10" guides="1" tooltips="1" connect="1" arrows="1" fold="1" page="1" pageScale="1" pageWidth="850" pageHeight="1100" math="0" shadow="0">
      <root>
        <mxCell id="0" />
        <mxCell id="1" parent="0" />
        <mxCell id="w-P_uFRrlAQFHveuq1Co-13" style="edgeStyle=orthogonalEdgeStyle;rounded=0;orthogonalLoop=1;jettySize=auto;html=1;exitX=1;exitY=0.8;exitDx=0;exitDy=0;entryX=0.5;entryY=1.025;entryDx=0;entryDy=0;entryPerimeter=0;" edge="1" parent="1" source="w-P_uFRrlAQFHveuq1Co-1" target="w-P_uFRrlAQFHveuq1Co-2">
          <mxGeometry relative="1" as="geometry" />
        </mxCell>
        <mxCell id="w-P_uFRrlAQFHveuq1Co-1" value="" style="html=1;shape=mxgraph.electrical.electro-mechanical.singleSwitch;aspect=fixed;elSwitchState=off;" vertex="1" parent="1">
          <mxGeometry x="240" y="350" width="75" height="20" as="geometry" />
        </mxCell>
        <mxCell id="w-P_uFRrlAQFHveuq1Co-14" style="edgeStyle=orthogonalEdgeStyle;rounded=0;orthogonalLoop=1;jettySize=auto;html=1;entryX=1;entryY=0.8;entryDx=0;entryDy=0;" edge="1" parent="1" source="w-P_uFRrlAQFHveuq1Co-2" target="w-P_uFRrlAQFHveuq1Co-6">
          <mxGeometry relative="1" as="geometry">
            <Array as="points">
              <mxPoint x="386" y="276" />
            </Array>
          </mxGeometry>
        </mxCell>
        <mxCell id="w-P_uFRrlAQFHveuq1Co-2" value="" style="verticalLabelPosition=bottom;dashed=0;shadow=0;html=1;align=center;verticalAlign=top;shape=mxgraph.cabinets.plugin_relay_2;" vertex="1" parent="1">
          <mxGeometry x="380" y="300" width="12" height="40" as="geometry" />
        </mxCell>
        <mxCell id="w-P_uFRrlAQFHveuq1Co-12" style="edgeStyle=orthogonalEdgeStyle;rounded=0;orthogonalLoop=1;jettySize=auto;html=1;exitX=0;exitY=0.5;exitDx=0;exitDy=0;entryX=0;entryY=0.8;entryDx=0;entryDy=0;" edge="1" parent="1" source="w-P_uFRrlAQFHveuq1Co-5" target="w-P_uFRrlAQFHveuq1Co-1">
          <mxGeometry relative="1" as="geometry" />
        </mxCell>
        <mxCell id="w-P_uFRrlAQFHveuq1Co-5" value="" style="shape=image;html=1;verticalAlign=top;verticalLabelPosition=bottom;labelBackgroundColor=#ffffff;imageAspect=0;aspect=fixed;image=https://cdn4.iconfinder.com/data/icons/essential-app-2/16/charging-energy-battery-electricity-128.png;rotation=-90;" vertex="1" parent="1">
          <mxGeometry x="170" y="296" width="48" height="48" as="geometry" />
        </mxCell>
        <mxCell id="w-P_uFRrlAQFHveuq1Co-15" style="edgeStyle=orthogonalEdgeStyle;rounded=0;orthogonalLoop=1;jettySize=auto;html=1;exitX=0;exitY=0.8;exitDx=0;exitDy=0;entryX=1;entryY=0.5;entryDx=0;entryDy=0;" edge="1" parent="1" source="w-P_uFRrlAQFHveuq1Co-6" target="w-P_uFRrlAQFHveuq1Co-5">
          <mxGeometry relative="1" as="geometry" />
        </mxCell>
        <mxCell id="w-P_uFRrlAQFHveuq1Co-6" value="" style="html=1;shape=mxgraph.electrical.electro-mechanical.singleSwitch;aspect=fixed;elSwitchState=off;" vertex="1" parent="1">
          <mxGeometry x="240" y="260" width="75" height="20" as="geometry" />
        </mxCell>
        <mxCell id="w-P_uFRrlAQFHveuq1Co-21" style="edgeStyle=orthogonalEdgeStyle;rounded=0;orthogonalLoop=1;jettySize=auto;html=1;exitX=0;exitY=0.8;exitDx=0;exitDy=0;entryX=1;entryY=0.5;entryDx=0;entryDy=0;" edge="1" parent="1" source="w-P_uFRrlAQFHveuq1Co-9" target="w-P_uFRrlAQFHveuq1Co-11">
          <mxGeometry relative="1" as="geometry">
            <Array as="points">
              <mxPoint x="329" y="246" />
              <mxPoint x="329" y="260" />
              <mxPoint x="464" y="260" />
            </Array>
          </mxGeometry>
        </mxCell>
        <mxCell id="w-P_uFRrlAQFHveuq1Co-9" value="" style="html=1;shape=mxgraph.electrical.electro-mechanical.singleSwitch;aspect=fixed;elSwitchState=on;" vertex="1" parent="1">
          <mxGeometry x="348.5" y="230" width="75" height="20" as="geometry" />
        </mxCell>
        <mxCell id="w-P_uFRrlAQFHveuq1Co-19" style="edgeStyle=orthogonalEdgeStyle;rounded=0;orthogonalLoop=1;jettySize=auto;html=1;exitX=0;exitY=0.5;exitDx=0;exitDy=0;entryX=0.5;entryY=1;entryDx=0;entryDy=0;" edge="1" parent="1" source="w-P_uFRrlAQFHveuq1Co-11" target="w-P_uFRrlAQFHveuq1Co-18">
          <mxGeometry relative="1" as="geometry" />
        </mxCell>
        <mxCell id="w-P_uFRrlAQFHveuq1Co-11" value="" style="shape=image;html=1;verticalAlign=top;verticalLabelPosition=bottom;labelBackgroundColor=#ffffff;imageAspect=0;aspect=fixed;image=https://cdn4.iconfinder.com/data/icons/essential-app-2/16/charging-energy-battery-electricity-128.png;rotation=-90;" vertex="1" parent="1">
          <mxGeometry x="440" y="296" width="48" height="48" as="geometry" />
        </mxCell>
        <mxCell id="w-P_uFRrlAQFHveuq1Co-20" style="edgeStyle=orthogonalEdgeStyle;rounded=0;orthogonalLoop=1;jettySize=auto;html=1;exitX=0.5;exitY=0;exitDx=0;exitDy=0;entryX=1;entryY=0.8;entryDx=0;entryDy=0;" edge="1" parent="1" source="w-P_uFRrlAQFHveuq1Co-18" target="w-P_uFRrlAQFHveuq1Co-9">
          <mxGeometry relative="1" as="geometry" />
        </mxCell>
        <mxCell id="w-P_uFRrlAQFHveuq1Co-18" value="" style="shape=image;html=1;verticalAlign=top;verticalLabelPosition=bottom;labelBackgroundColor=#ffffff;imageAspect=0;aspect=fixed;image=https://cdn1.iconfinder.com/data/icons/iconoir-vol-3/24/light-bulb-on-128.png" vertex="1" parent="1">
          <mxGeometry x="580" y="301" width="38" height="38" as="geometry" />
        </mxCell>
      </root>
    </mxGraphModel>
  </diagram>
</mxfile>
